<svg width="16" height="16" viewBox="0 0 16 16" fill="none" xmlns="http://www.w3.org/2000/svg">
    <path fill-rule="evenodd" clip-rule="evenodd" d="M4.062 4.5V4a3.5 3.5 0 0 1 7 0v.5h.998a2 2 0 0 1 1.96 2.392l-.578 2.894A1.5 1.5 0 0 0 11.062 11v.5h-.5a1.5 1.5 0 0 0 0 3H4.139a2 2 0 0 1-1.961-1.609l-1.2-6A2 2 0 0 1 2.938 4.5h1.124zm6-.5v.5h-5V4a2.5 2.5 0 0 1 5 0z" fill="#fff"/>
    <path d="M12.062 11a.5.5 0 0 1 1 0v1.5h1.5a.5.5 0 0 1 0 1h-1.5V15a.5.5 0 1 1-1 0v-1.5h-1.5a.5.5 0 1 1 0-1h1.5V11z" fill="#fff"/>
</svg>
