<svg width="30" height="20" viewBox="0 0 30 20" fill="none" xmlns="http://www.w3.org/2000/svg">
    <path d="m7.877 9.627.27.594c1.25-.19 2.412-.81 2.925-1.683.513.873 1.674 1.494 2.916 1.683l.26-.594c-1.448-.19-2.807-1.09-2.807-2.08h2.574v-.593H11.44v-.99h-.738v.99H8.129v.594h2.565c0 .999-1.35 1.89-2.817 2.079zm3.564 1.809h3.285v-.603h-7.3v.603h3.277v2.6h.738v-2.6zM21.601 5.964v2.475h-1.629v.612h1.63v2.934h.746V5.964h-.747zm-1.494 4.887.36-.585c-1.188-.387-2.016-1.305-2.016-2.385v-.252h1.782v-.594h-1.782V6.009h-.738v1.026h-1.79v.594h1.79v.252c0 1.125-.8 2.133-1.998 2.538l.37.576c.944-.333 1.655-1.008 2.006-1.908.37.828 1.08 1.449 2.016 1.764zm2.466 2.997v-.603H17.93v-1.8h-.747v2.403h5.391z" fill="#D93400"/>
    <rect x=".5" y=".5" width="29" height="19" rx="9.5" stroke="#D93400" stroke-opacity=".5"/>
</svg>
