<svg width="20" height="20" viewBox="0 0 20 20" fill="none" xmlns="http://www.w3.org/2000/svg">
    <path d="M18 15.371a8 8 0 1 0-16 0h1.33a6.67 6.67 0 1 1 13.341 0H18z" fill="#39925C"/>
    <path fill-rule="evenodd" clip-rule="evenodd" d="M10 4.88c1.376 0 2.49-.148 2.49-1.868 0-.117-.004-.233-.014-.347H14.4l1.357 13.57a1 1 0 0 1-.995 1.1H5.237a1 1 0 0 1-.995-1.1l1.357-13.57h1.925c-.01.114-.015.23-.015.347 0 1.72 1.115 1.869 2.49 1.869z" fill="#5FC487"/>
    <path d="M10 14.478c1.893 0 3.429-1.594 3.429-2.857H6.57c0 1.263 1.535 2.857 3.429 2.857z" fill="#39925C"/>
    <path d="M6.571 9.335h6.858v2.286H6.57V9.335z" fill="#39925C"/>
</svg>
