<svg width="20" height="20" viewBox="0 0 20 20" fill="none" xmlns="http://www.w3.org/2000/svg">
    <path d="M3 9.587h14v6a1 1 0 0 1-1 1H4a1 1 0 0 1-1-1v-6z" fill="#8FAFEA"/>
    <path d="M3.772 7.27a1 1 0 0 1 .949-.683h10.558a1 1 0 0 1 .949.683L17 9.587H3l.772-2.317z" fill="#7697D5"/>
    <path d="M4.905 7.965a.5.5 0 0 1 .485-.378h9.22a.5.5 0 0 1 0 1H5.39a.5.5 0 0 1-.485-.622z" fill="#5E85CC"/>
    <path d="M6 5.028s1.926-1.38 3.5-1.534c3.5-.344 4.5.534 4.5.534l-1 4.558H7L6 5.028z" fill="#D1DAEA"/>
</svg>
