<svg width="20" height="20" viewBox="0 0 20 20" fill="none" xmlns="http://www.w3.org/2000/svg">
    <path d="M5.625 10.875a4.375 4.375 0 0 1 8.75 0v3.5h-8.75v-3.5z" fill="#F95757"/>
    <path d="M4.75 15.375a1 1 0 0 1 1-1h8.5a1 1 0 0 1 1 1V16a1 1 0 0 1-1 1h-8.5a1 1 0 0 1-1-1v-.625z" fill="#C4C4C4"/>
    <path d="M9.125 3.875a.875.875 0 1 1 1.75 0v.875a.875.875 0 0 1-1.75 0v-.875zM3.619 6.606A.875.875 0 1 1 4.856 5.37l.619.619a.875.875 0 0 1-1.238 1.237l-.618-.619zM3 11.75A.875.875 0 1 1 3 10h.875a.875.875 0 0 1 0 1.75H3zM16.125 11.75a.875.875 0 1 1 0-1.75H17a.875.875 0 0 1 0 1.75h-.875zM15.356 7.225a.875.875 0 1 1-1.237-1.237l.618-.619a.875.875 0 0 1 1.238 1.237l-.619.62z" fill="#FFA800"/>
</svg>
