<svg width="20" height="20" viewBox="0 0 20 20" fill="none" xmlns="http://www.w3.org/2000/svg">
    <path fill-rule="evenodd" clip-rule="evenodd" d="M16 4.632H4l1.263 11.367V16c0 1.047 2.12 1.895 4.737 1.895 2.616 0 4.737-.848 4.737-1.895L16 4.632z" fill="#CCF0FF"/>
    <path d="M16 4.632c0 1.395-2.686 2.526-6 2.526S4 6.027 4 4.632c0-1.395 2.686-2.527 6-2.527s6 1.132 6 2.527z" fill="#ABD6E8"/>
    <path d="M15.368 4.632c0 1.046-2.403 1.894-5.368 1.894-2.965 0-5.368-.848-5.368-1.894 0-1.047 2.403-1.895 5.368-1.895 2.965 0 5.368.848 5.368 1.895z" fill="#CCF0FF"/>
    <path d="M14.105 15.369c0 1.046-1.838 1.895-4.105 1.895-2.267 0-4.105-.849-4.105-1.895 0-1.047 1.838-1.895 4.105-1.895 2.267 0 4.105.848 4.105 1.895z" fill="#71C7EB"/>
    <path d="m5.895 15.369-.632-4.421h9.474l-.632 4.42h-8.21z" fill="#71C7EB"/>
    <path d="M14.737 10.948c0 1.046-2.121 1.894-4.737 1.894s-4.737-.848-4.737-1.894c0-1.047 2.12-1.895 4.737-1.895 2.616 0 4.737.848 4.737 1.895z" fill="#A3E2FD"/>
</svg>
