<svg width="20" height="20" viewBox="0 0 20 20" fill="none" xmlns="http://www.w3.org/2000/svg">
    <path d="M6 12.078h8v.666a2 2 0 0 1-2 2H8a2 2 0 0 1-2-2v-.666z" fill="#453131"/>
    <path d="M18 8.256c0 1.657-3.582 3-8 3s-8-1.343-8-3 3.582-3 8-3 8 1.343 8 3z" fill="#241F1F"/>
    <path d="M15 11c0 1.105-2.239 2-5 2s-5-.895-5-2c0-1.104 2.239-2 5-2s5 .896 5 2z" fill="#FF5E18"/>
    <path fill-rule="evenodd" clip-rule="evenodd" d="M17.994 8.254c-.17 1.6-3.684 2.879-7.994 2.879S2.176 9.855 2.006 8.254A.55.55 0 0 0 2 8.338a5.455 5.455 0 0 0 5.455 5.455h5.09A5.455 5.455 0 0 0 18 8.338a.555.555 0 0 0-.006-.084z" fill="#573F3F"/>
    <path fill-rule="evenodd" clip-rule="evenodd" d="M17.04 9.05c.343-.304.46-.574.46-.794 0-.22-.117-.489-.46-.793-.343-.304-.868-.6-1.559-.86-1.378-.517-3.316-.847-5.481-.847s-4.103.33-5.481.847c-.691.26-1.216.556-1.559.86-.343.304-.46.573-.46.793 0 .22.117.49.46.794.343.304.868.6 1.559.86 1.378.516 3.316.846 5.481.846s4.103-.33 5.481-.846c.691-.26 1.216-.556 1.559-.86zM10 11.256c4.418 0 8-1.343 8-3s-3.582-3-8-3-8 1.343-8 3 3.582 3 8 3z" fill="#573F3F"/>
</svg>
