<svg width="20" height="20" viewBox="0 0 20 20" fill="none" xmlns="http://www.w3.org/2000/svg">
    <path fill-rule="evenodd" clip-rule="evenodd" d="M9.066 2.691a.69.69 0 0 1 1.381 0v5.625h.592V3.481a.69.69 0 1 1 1.382 0V9.399l1.55-2.033a.675.675 0 0 1 1.115.758l-1.156 1.914c-.249.519-.458 1.073-.656 1.596-.393 1.04-.738 1.953-1.248 2.208a2.72 2.72 0 0 1-.394.162V16H6.895v-1.966a3.55 3.55 0 0 1-1.58-2.955V5.06a.69.69 0 0 1 1.382 0v3.257h.387V3.481a.69.69 0 1 1 1.382 0v4.835h.6V2.691z" fill="#FFB595"/>
    <path d="M6.5 15H12v3H6.5v-3z" fill="#FF5C5C"/>
    <rect x="10" y="16" width="1" height="1" rx=".5" fill="#fff"/>
</svg>
