<svg width="24" height="24" viewBox="0 0 24 24" fill="none" xmlns="http://www.w3.org/2000/svg">
    <path fill-rule="evenodd" clip-rule="evenodd" d="M8.519 8.801 9.334 3.5H5.477a1 1 0 0 0-.956.706L3.133 8.719c-.1.326-.125.547-.096.71A2.501 2.501 0 0 0 5.5 11.5c1.03 0 1.635-.3 2.043-.707.433-.433.746-1.09.976-1.992zm6.962 0L14.666 3.5h3.857a1 1 0 0 1 .956.706l1.388 4.513c.1.326.125.547.097.71A2.501 2.501 0 0 1 18.5 11.5c-1.03 0-1.635-.3-2.043-.707-.433-.433-.746-1.09-.976-1.992zm-5.946.049.823-5.35h3.284l.823 5.35c.026.167.034.287.027.384-.05.679-.31 1.237-.707 1.621-.39.378-.974.645-1.785.645-.811 0-1.394-.267-1.785-.645-.398-.384-.658-.942-.707-1.621a1.75 1.75 0 0 1 .027-.384zM5.5 12.5c-.537 0-1.045-.12-1.5-.337V19.5a1 1 0 0 0 1 1h4v-4a1 1 0 0 1 1-1h4a1 1 0 0 1 1 1v4h4a1 1 0 0 0 1-1v-7.337a3.485 3.485 0 0 1-1.5.337c-1.732 0-2.744-.72-3.369-1.828-.53 1.09-1.614 1.828-3.131 1.828-1.517 0-2.6-.739-3.131-1.828C8.244 11.78 7.232 12.5 5.5 12.5z" fill="#D93400"/>
</svg>
