<svg width="24" height="24" viewBox="0 0 24 24" fill="none" xmlns="http://www.w3.org/2000/svg">
    <path d="M6.765 6.712a4.134 4.134 0 1 0 8.268 0 4.134 4.134 0 0 0-8.268 0z" fill="#D93400"/>
    <path d="M17.457 4.885a1.654 1.654 0 1 1 3.308 0c0 2.777-.774 5.299-2.524 7.135a8.143 8.143 0 0 1-1.022.908l-.393 7.264c0 .68-.699 1.23-1.562 1.23H7.187l-.415-.83a.1.1 0 0 1-.009-.029l-.299-1.793c-.02-.121-.198-.106-.198.017v2.635H4.797c-.862 0-1.562-.55-1.562-1.23v-3.69c0-2.717 2.797-4.92 6.248-4.92h1.154a1.86 1.86 0 0 1 .127-.004c2.42 0 4.089-.795 5.082-1.839 1.007-1.057 1.611-2.669 1.611-4.854z" fill="#D93400"/>
</svg>
