<svg width="32" height="32" viewBox="0 0 32 32" fill="none" xmlns="http://www.w3.org/2000/svg">
    <path d="M0 16C0 7.163 7.163 0 16 0s16 7.163 16 16-7.163 16-16 16S0 24.837 0 16z" fill="#D93400"/>
    <path fill-rule="evenodd" clip-rule="evenodd" d="M12.062 12.5V12a3.5 3.5 0 1 1 7 0v.5h.998a2 2 0 0 1 1.96 2.392l-.578 2.893A1.5 1.5 0 0 0 19.062 19v.5h-.5a1.5 1.5 0 1 0 0 3h-6.423a2 2 0 0 1-1.961-1.608l-1.2-6a2 2 0 0 1 1.96-2.392h1.124zm6-.5v.5h-5V12a2.5 2.5 0 0 1 5 0z" fill="#fff"/>
    <path d="M20.062 19a.5.5 0 1 1 1 0v1.5h1.5a.5.5 0 0 1 0 1h-1.5V23a.5.5 0 0 1-1 0v-1.5h-1.5a.5.5 0 1 1 0-1h1.5V19z" fill="#fff"/>
</svg>
